<?xml version="1.0" ?><!-- Uploaded to: SVG Repo, www.svgrepo.com, Generator: SVG Repo Mixer Tools -->
<svg width="800px" height="800px" viewBox="0 0 1000 1000" id="Layer_2" version="1.1" xml:space="preserve" xmlns="http://www.w3.org/2000/svg" xmlns:xlink="http://www.w3.org/1999/xlink"><path d="M152.234,521.775l20.701,47.51c114.93-34.96,570.299,49.46,659.59,66.57l15.24-55.34  C847.766,580.515,218.785,455.995,152.234,521.775z" style="fill:#231F20;"/><path d="M826.135,659.035l1.859-6.74c-68.148-13.03-398.289-74.41-571.238-74.41  c-34.311,0-60.191,2.39-76.98,7.11l33.32,76.47c2.889,6.62,9.42,10.9,16.648,10.9h578.881  C816.795,672.365,823.965,666.915,826.135,659.035z" style="fill:#231F20;"/><path d="M300.775,446.815l-8.281,39.5c50.182,1.89,108.592,7.37,168.361,14.6v-51.53  c0-6.9-5.6-12.5-12.5-12.5h-135.35C307.096,436.885,301.984,441.035,300.775,446.815z" style="fill:#231F20;"/><path d="M514.606,440.385h-8.5c-5.109,0-9.25,4.141-9.25,9.25v26.25h-19v27.12  c43.85,5.52,88.08,11.88,130,18.36v-32.98c0-6.9-5.6-12.5-12.5-12.5h-9.5v-10.25c0-5.109-4.143-9.25-9.25-9.25h-24.5  c-5.109,0-9.25,4.141-9.25,9.25v10.25h-19v-26.25C523.856,444.526,519.713,440.385,514.606,440.385z" style="fill:#231F20;"/><path d="M257.027,450.625c4.529,0.502,8.607-2.763,9.109-7.291l0.135-1.224  c0.502-4.529-2.762-8.607-7.291-9.108l-18.125-2.008v-6.858c0-4.56-3.691-8.25-8.25-8.25h-13c-4.561,0-8.25,3.69-8.25,8.25v3.589  l-41.33-4.579c-4.529-0.502-8.607,2.763-9.109,7.291l-0.135,1.224c-0.502,4.529,2.762,8.607,7.291,9.108l43.283,4.796v41.76  c5.549-0.48,11.539-0.87,18-1.16c3.68-0.16,7.51-0.29,11.5-0.39c5.039-0.12,10.33-0.18,15.889-0.18h2.111v-10.96  c0-4.56-3.691-8.25-8.25-8.25h-9.75v-17.552L257.027,450.625z" style="fill:#231F20;"/><path d="M396.105,327.635h-13c-4.557,0-8.25,3.694-8.25,8.25v3.589l-41.33-4.579  c-4.529-0.502-8.607,2.763-9.109,7.291l-0.135,1.224c-0.502,4.529,2.762,8.607,7.291,9.108l43.283,4.796v26.461h-25.041  c-3.299,0-6.15,2.31-6.83,5.54l-6.41,30.57h95.781v-29.14c0-3.85-3.121-6.97-6.98-6.97h-21.02v-23.192l16.172,1.792  c4.529,0.502,8.607-2.763,9.109-7.291l0.135-1.224c0.502-4.529-2.762-8.607-7.291-9.108l-18.125-2.008v-6.858  C404.355,331.329,400.662,327.635,396.105,327.635z" style="fill:#231F20;"/><path d="M663.894,429.655h17.561v-20.9c0-5.11-4.141-9.25-9.25-9.25h-23.41v-21.04  c0-5.11-4.141-9.25-9.25-9.25h-8.5c-5.109,0-9.25,4.14-9.25,9.25v145.07c20.65,3.25,40.641,6.5,59.66,9.68v-12.44h-17.561  c-2.6,0-4.709-2.11-4.709-4.71v-7.59c0-2.6,2.109-4.7,4.709-4.7h17.561v-20.65h-17.561c-2.6,0-4.709-2.11-4.709-4.71v-7.58  c0-2.6,2.109-4.71,4.709-4.71h17.561v-19.47h-17.561c-2.6,0-4.709-2.11-4.709-4.71v-7.58  C659.185,431.765,661.295,429.655,663.894,429.655z" style="fill:#231F20;"/><path d="M718.525,507.885c-7.92,0-14.34,6.42-14.34,14.33v14.84c40.609,6.93,75.629,13.29,101.34,18.08  v-32.92c0-7.91-6.42-14.33-14.34-14.33h-18.248v-14.456l43.283-4.795c4.529-0.502,7.793-4.58,7.291-9.108l-0.135-1.224  c-0.502-4.529-4.58-7.793-9.109-7.292l-41.33,4.579V472c0-4.556-3.693-8.25-8.25-8.25h-13c-4.555,0-8.25,3.694-8.25,8.25v6.858  l-18.125,2.008c-4.529,0.502-7.793,4.58-7.291,9.108l0.135,1.224c0.502,4.529,4.58,7.793,9.109,7.292l16.172-1.792v11.187H718.525z" style="fill:#231F20;"/></svg>